<svg width="149" height="71" viewBox="0 0 149 71" fill="none" xmlns="http://www.w3.org/2000/svg">
<g clip-path="url(#clip0_919:1322)">
<path d="M107.105 16.0452C108.076 16.0452 108.915 16.1865 109.621 16.4592C111.127 17.0194 111.843 18.2274 111.775 20.0735C111.726 21.3692 111.397 22.6795 110.789 24.0045C110.185 25.3294 109.322 26.5666 108.204 27.7162C107.218 28.7634 106.089 29.611 104.829 30.2491C103.568 30.8921 101.915 31.4863 99.8746 32.027L103.235 38.1061C103.465 38.5055 103.735 38.7539 104.039 38.8513C104.176 38.8952 104.353 38.9195 104.569 38.9195C104.839 38.9195 105.167 38.8854 105.56 38.8172L107.115 38.5493L105.942 41.7106C105.668 42.4413 105.319 42.9576 104.898 43.245C104.471 43.5373 103.745 43.7759 102.705 43.9513L98.7219 44.6381C98.2019 44.7258 97.7605 44.7696 97.3975 44.7696C97.059 44.7696 96.7892 44.7307 96.5832 44.6527C96.1516 44.4968 95.8082 44.1218 95.5433 43.5373L91.3445 33.4932L88.1071 34.0534L84.2516 44.3751C84.021 45.018 83.8984 45.4516 83.8935 45.6708C83.8739 46.1676 84.2565 46.4306 85.0413 46.4599L84.7715 47.0444L76.1776 48.5252C75.7999 48.5885 75.4762 48.6226 75.2113 48.6226C74.5344 48.6226 74.2058 48.4131 74.2205 48.004C74.2303 47.7799 74.3039 47.4974 74.4412 47.1418L83.6581 22.5772C83.7513 22.2606 83.8346 22.0025 83.9033 21.7979L84.0112 21.2864C84.0308 20.8188 83.6482 20.5704 82.8634 20.5363L83.0743 19.9225L102.754 16.5323C104.584 16.2157 106.001 16.0549 107.012 16.0452C107.041 16.0452 107.075 16.0452 107.105 16.0452ZM89.6963 29.762L94.68 28.9047C95.8033 28.7099 96.7157 28.5102 97.422 28.3104C98.1333 28.1059 98.7366 27.8526 99.2418 27.5408C100.09 27.0391 100.787 26.3572 101.331 25.4999C101.881 24.6377 102.165 23.7512 102.205 22.8403C102.239 22.0414 101.935 21.5446 101.302 21.3498C101.057 21.2767 100.723 21.2377 100.306 21.2377C99.6588 21.2377 98.8004 21.3303 97.7359 21.5105L92.4432 22.4262L89.6963 29.762ZM107.105 15.5581C107.066 15.5581 107.031 15.5581 106.992 15.5581C105.972 15.5678 104.51 15.7383 102.671 16.0549L82.9958 19.4452C82.8193 19.4744 82.6721 19.6011 82.6132 19.7667L82.4023 20.3804C82.3533 20.5265 82.3729 20.6873 82.4612 20.8139C82.5495 20.9406 82.6917 21.0185 82.8487 21.0234C83.3539 21.0429 83.4815 21.1598 83.506 21.1793C83.5109 21.1841 83.5207 21.1939 83.5256 21.2328L83.4324 21.6664C83.3637 21.8661 83.2853 22.1145 83.1921 22.4214L73.9801 46.9713C73.8232 47.3659 73.7398 47.702 73.7299 47.9796C73.7201 48.2719 73.8133 48.53 73.9997 48.72C74.2548 48.9782 74.6472 49.1048 75.2113 49.1048C75.5056 49.1048 75.849 49.0707 76.261 49.0025L84.8598 47.5217C85.0168 47.4925 85.1541 47.3902 85.2228 47.2441L85.4926 46.6644C85.5613 46.5183 85.5515 46.343 85.4632 46.2066C85.3749 46.0702 85.2277 45.9825 85.0609 45.9776C84.5753 45.963 84.438 45.8461 84.4184 45.8218C84.4085 45.812 84.384 45.7877 84.3889 45.6951C84.3938 45.6172 84.4282 45.3493 84.7176 44.5456L88.4749 34.4918L91.0453 34.0485L95.092 43.7321C95.4207 44.453 95.8622 44.9109 96.4164 45.1155C96.6764 45.2129 97.0002 45.2616 97.4024 45.2616C97.7899 45.2616 98.2657 45.2129 98.8102 45.1203L102.793 44.4335C103.907 44.2436 104.691 43.9854 105.182 43.6493C105.687 43.3034 106.099 42.7092 106.408 41.8811L107.581 38.7198C107.64 38.5542 107.61 38.374 107.497 38.2376C107.404 38.1255 107.267 38.0622 107.12 38.0622C107.09 38.0622 107.066 38.0622 107.036 38.0671L105.481 38.335C105.118 38.3983 104.819 38.4275 104.579 38.4275C104.373 38.4275 104.26 38.4032 104.201 38.3837C104.019 38.3253 103.838 38.145 103.671 37.8576L100.615 32.329C102.44 31.8127 103.902 31.272 105.064 30.6778C106.369 30.0153 107.546 29.1288 108.571 28.0474C109.719 26.8637 110.622 25.5681 111.245 24.1993C111.878 22.8257 112.226 21.4423 112.275 20.0882C112.368 17.5065 110.985 16.4398 109.803 16.0014C109.037 15.7091 108.13 15.5581 107.105 15.5581ZM92.8062 22.85L97.8242 21.983C98.8543 21.8076 99.6931 21.7151 100.311 21.7151C100.679 21.7151 100.964 21.7443 101.165 21.8076C101.454 21.8953 101.748 22.0853 101.719 22.8111C101.685 23.6343 101.42 24.4477 100.924 25.2271C100.419 26.0211 99.7716 26.6543 98.9966 27.1122C98.5257 27.3996 97.9518 27.6382 97.2896 27.8282C96.6028 28.023 95.7003 28.2228 94.5966 28.4127L90.4566 29.1288L92.8062 22.85Z" fill="#E577CB"/>
<path d="M143.61 9.48881L142.575 12.2556C142.339 12.9229 141.981 13.3954 141.5 13.673C141.015 13.9507 140.127 14.1991 138.842 14.4183L126.265 16.5908L123.856 23.0059L138.43 20.4924L137.125 23.9216C136.899 24.4282 136.61 24.7887 136.252 25.0176C135.894 25.2466 135.256 25.4365 134.344 25.5924L125.063 27.1901C123.94 27.3849 123.101 27.6626 122.557 28.0328C122.002 28.403 121.59 28.9632 121.316 29.723C121.316 29.723 120.57 31.8663 119.638 34.331L117.259 40.8095C117.259 40.8095 117.146 41.3356 116.253 41.6035L116.195 41.6181L116.185 41.6229C115.998 41.6716 115.787 41.7106 115.537 41.735L109.94 42.6994C109.646 42.753 109.381 42.7822 109.156 42.792C109.004 42.8163 108.871 42.8261 108.753 42.8261C107.321 42.8261 108.229 41.2333 108.592 40.2347C109.852 36.7665 112.874 28.8755 112.874 28.8706L117.426 16.7515C117.519 16.4349 117.602 16.1767 117.666 15.9721L117.784 15.4607C117.799 14.9931 117.416 14.7446 116.636 14.7105L116.847 14.1017L143.61 9.48881ZM143.61 9.00171C143.6 9.00171 143.595 9.00171 143.585 9.00171C143.561 9.00171 143.536 9.00658 143.516 9.01145L116.744 13.6243C116.567 13.6535 116.42 13.7802 116.361 13.9507L116.15 14.5595C116.101 14.7057 116.121 14.8664 116.209 14.9931C116.298 15.1197 116.44 15.1976 116.592 15.2025C116.832 15.2123 117.234 15.2512 117.269 15.4168L117.171 15.8504L117.156 15.8893C117.092 16.0842 117.019 16.3229 116.935 16.6054L112.393 28.7099L112.295 28.968C110.323 34.1362 108.842 38.0817 108.111 40.0788C108.057 40.225 107.993 40.3857 107.924 40.5562C107.601 41.3453 107.238 42.2367 107.65 42.8456C107.866 43.1622 108.229 43.3229 108.739 43.3229C108.876 43.3229 109.028 43.3132 109.19 43.2888C109.445 43.2742 109.72 43.245 110.014 43.1914L115.586 42.2318C115.841 42.2075 116.072 42.1685 116.288 42.11C116.298 42.11 116.307 42.1052 116.312 42.1052L116.371 42.0906C117.391 41.7886 117.656 41.1699 117.71 40.98L120.079 34.5161C121.002 32.0757 121.752 29.9227 121.762 29.9033C122.002 29.2408 122.346 28.7683 122.812 28.4566C123.297 28.1253 124.077 27.8672 125.127 27.6869L134.408 26.0844C135.393 25.9139 136.08 25.7044 136.497 25.4414C136.934 25.1686 137.292 24.7254 137.557 24.136C137.562 24.1262 137.562 24.1214 137.566 24.1116L138.871 20.6775C138.935 20.5119 138.906 20.3317 138.793 20.1953C138.7 20.0833 138.557 20.02 138.415 20.02C138.386 20.02 138.361 20.02 138.332 20.0248L124.602 22.3921L126.613 17.034L138.915 14.9103C140.269 14.6764 141.191 14.4134 141.731 14.1065C142.32 13.7704 142.756 13.2054 143.026 12.426L144.046 9.69827C144.076 9.63981 144.09 9.57162 144.09 9.49855C144.1 9.22091 143.879 9.00171 143.61 9.00171Z" fill="#E577CB"/>
<path d="M81.1964 20.283L80.1025 23.1374C79.8769 23.7268 79.4992 24.1652 78.9743 24.4623C78.4495 24.7595 77.5862 25.0079 76.3844 25.2173L63.9596 27.3606L61.556 33.7611L76.095 31.2525L74.8589 34.5795C74.6332 35.086 74.3291 35.466 73.9514 35.7241C73.5688 35.9823 72.9655 36.182 72.1365 36.3233L62.8755 37.921C61.6737 38.1256 60.8104 38.4081 60.2856 38.7588C59.7558 39.1095 59.3291 39.694 59.0151 40.5124L56.4742 47.2636L73.4707 44.3069L72.4063 47.1028C72.2248 47.5705 72.0433 47.9553 71.8667 48.2622C71.6901 48.5642 71.4547 48.8126 71.1604 48.9977C70.8661 49.1828 70.4982 49.3435 70.0616 49.4702C69.6201 49.6017 69.0708 49.7235 68.4086 49.8404L47.6596 53.4206C47.2623 53.4888 46.9238 53.5229 46.6442 53.5229C45.9624 53.5229 45.624 53.3183 45.6436 52.9091L45.7221 52.5243L45.9281 52.0372L55.1253 27.5311C55.2234 27.2145 55.3019 26.9563 55.3706 26.7517L55.4834 26.2403C55.503 25.7726 55.1155 25.5242 54.3356 25.495L54.5465 24.8861L81.1964 20.283ZM81.1964 19.7959C81.167 19.7959 81.1424 19.8008 81.113 19.8056L54.4631 24.4039C54.2865 24.4331 54.1394 24.5598 54.0854 24.7254L53.8696 25.3294C53.8205 25.4755 53.8402 25.6363 53.9284 25.7629C54.0167 25.8895 54.159 25.9675 54.316 25.9724C54.5122 25.9772 54.9536 26.0162 54.988 26.1867L54.8948 26.6153C54.8261 26.815 54.7476 27.0635 54.6544 27.3703L45.4621 51.8618L45.2659 52.3295C45.2512 52.3587 45.2463 52.3879 45.2365 52.422L45.158 52.8068C45.1531 52.8312 45.1482 52.8604 45.1482 52.8848C45.1384 53.1721 45.2315 53.4254 45.4179 53.6154C45.673 53.8784 46.0703 54.0002 46.6442 54.0002C46.9533 54.0002 47.3114 53.9661 47.743 53.8931L68.4919 50.3129C69.1689 50.1959 69.7477 50.0693 70.2039 49.9329C70.6748 49.7965 71.0868 49.6163 71.4252 49.402C71.7882 49.173 72.0776 48.8662 72.2935 48.496C72.4848 48.1696 72.6761 47.7556 72.8625 47.2685L73.9269 44.4725C73.9907 44.3069 73.9612 44.1267 73.8484 43.9903C73.7552 43.8782 73.613 43.8149 73.4707 43.8149C73.4413 43.8149 73.4168 43.8149 73.3873 43.8198L57.2345 46.6304L59.4762 40.6731C59.7509 39.9571 60.1188 39.4456 60.5603 39.1533C61.0263 38.8416 61.8356 38.5834 62.9638 38.3886L72.2248 36.7909C73.1323 36.635 73.7846 36.4158 74.231 36.1187C74.6823 35.8118 75.0453 35.3588 75.3102 34.7743C75.3151 34.7646 75.32 34.7548 75.3249 34.7451L76.5512 31.4474C76.5806 31.3889 76.5953 31.3207 76.5953 31.2477C76.5953 30.9798 76.3795 30.7606 76.1097 30.7606H76.1048C76.0999 30.7606 76.0901 30.7606 76.0852 30.7606C76.0606 30.7606 76.0361 30.7654 76.0165 30.7703L62.3261 33.1279L64.3323 27.7844L76.4776 25.6898C77.748 25.4706 78.6506 25.2027 79.2245 24.8764C79.8524 24.5257 80.3036 23.9996 80.5685 23.303L81.6624 20.4486C81.7261 20.283 81.6967 20.1028 81.5839 19.9664C81.4809 19.8592 81.3386 19.7959 81.1964 19.7959Z" fill="#E577CB"/>
<path d="M107.537 2.78129C119.658 2.78129 131.278 4.65176 139.028 8.50474L112.947 13.0007C106.522 11.2812 98.7468 10.6285 90.8544 10.6285C86.6997 10.6285 82.5107 10.8136 78.4737 11.1156C56.0423 12.801 32.0804 22.543 32.0804 22.543C47.0952 14.4376 64.3419 7.93483 90.0794 4.06724C95.7694 3.21481 101.705 2.78129 107.537 2.78129ZM107.537 2.29419C101.611 2.29419 95.7105 2.72771 90.0107 3.58501C67.1623 7.01421 49.2241 12.7328 31.8499 22.1144C31.6193 22.2362 31.5311 22.5187 31.639 22.7525C31.7224 22.9278 31.8989 23.0301 32.0804 23.0301C32.1442 23.0301 32.208 23.0204 32.2668 22.996C32.5072 22.8986 56.4151 13.2637 78.5129 11.6027C82.7952 11.2812 86.945 11.1156 90.8544 11.1156C99.5807 11.1156 106.973 11.9096 112.82 13.4732C112.859 13.4829 112.903 13.4878 112.947 13.4878C112.977 13.4878 113.006 13.4878 113.031 13.4829L139.112 8.98697C139.323 8.95288 139.484 8.78726 139.514 8.57781C139.543 8.36835 139.44 8.16377 139.249 8.07122C131.759 4.34489 120.496 2.29419 107.537 2.29419Z" fill="#E577CB"/>
<path d="M144.488 12.1531C146.739 14.2428 148.147 16.6832 148.441 19.4889C149.972 34.0094 125.348 55.3591 83.9429 65.8902C70.3261 69.3535 58.9068 70.5177 49.7047 70.5177C30.9227 70.5177 21.4018 65.6759 21.4018 65.6759C26.876 66.8303 32.6199 67.2882 38.2952 67.2882C55.0121 67.2882 71.1355 63.3232 78.0812 61.5745C87.2294 59.2656 127.668 44.185 128.497 28.3834L134.628 27.3215C135.801 27.1218 136.61 26.8587 137.184 26.4983C137.836 26.0842 138.356 25.4607 138.724 24.6375L138.744 24.5937L141.152 18.2565L126.569 20.7748L127.555 18.1445L139.136 16.1474C140.662 15.8843 141.692 15.5823 142.364 15.1975C143.222 14.7104 143.845 13.9213 144.218 12.8545L144.488 12.1531ZM144.488 11.666C144.448 11.666 144.414 11.6709 144.375 11.6806C144.213 11.7196 144.085 11.8316 144.027 11.9826L143.767 12.6792C143.428 13.6437 142.879 14.3451 142.128 14.7689C141.51 15.1244 140.505 15.4167 139.058 15.6603L127.476 17.6574C127.305 17.6866 127.163 17.8035 127.099 17.9691L126.113 20.5995C126.054 20.7651 126.083 20.9453 126.196 21.0817C126.289 21.1937 126.432 21.2571 126.574 21.2571C126.603 21.2571 126.628 21.2571 126.657 21.2522L140.397 18.88L138.288 24.4232L138.278 24.4427C137.949 25.1734 137.498 25.7238 136.924 26.0891C136.404 26.4155 135.649 26.6541 134.55 26.8392L128.413 27.9011C128.188 27.9401 128.021 28.1301 128.006 28.3541C127.575 36.5618 115.9 44.4431 106.178 49.6064C94.3321 55.8998 82.0544 60.0645 77.9586 61.0971C71.7781 62.6559 55.3604 66.7962 38.2952 66.7962C32.1932 66.7962 26.5424 66.2556 21.4999 65.1937C21.4655 65.1888 21.4312 65.1839 21.3969 65.1839C21.1958 65.1839 21.0045 65.3106 20.9358 65.5103C20.8524 65.7392 20.9554 65.9974 21.1761 66.1094C21.5686 66.3091 31.0209 71.0048 49.7047 71.0048C60.398 71.0048 71.9595 69.4412 84.0606 66.3627C103.309 61.4673 120.541 53.7273 132.588 44.5746C143.757 36.0844 149.717 26.9221 148.927 19.4402C148.633 16.6198 147.249 14.0479 144.821 11.7975C144.733 11.7099 144.61 11.666 144.488 11.666Z" fill="#E577CB"/>
<path d="M51.8141 22.0755C52.6529 22.0755 53.0649 22.3336 53.0453 22.8451C53.0404 22.9133 52.9815 23.1276 52.8638 23.4832L39.9828 58.0041L35.1168 58.8419C34.5429 58.9394 34.0524 58.9881 33.6404 58.9881C33.1989 58.9881 32.8457 58.9345 32.5858 58.8176C32.0854 58.5984 31.5949 58.0187 31.1191 57.0835L22.3879 40.6048L15.4863 58.8078C15.3685 59.1683 15.2803 59.48 15.2214 59.7431C15.1625 60.011 15.1282 60.2302 15.1184 60.3958C15.0988 61.0095 15.5402 61.3408 16.4624 61.3895L16.2073 62.0958L6.55393 63.7617C6.08793 63.8445 5.69061 63.8834 5.35706 63.8834C4.51827 63.8834 4.10624 63.6253 4.12586 63.109L4.17982 62.6413L4.39564 62.0422L15.8198 31.5983C15.9376 31.2038 16.0406 30.8823 16.1239 30.629C16.2122 30.3757 16.2564 30.1614 16.2662 29.9909C16.2858 29.4112 15.8149 29.1044 14.8437 29.0654L15.1037 28.3055L25.4438 26.5227C25.9147 26.4448 26.312 26.4009 26.6407 26.4009C26.9595 26.4009 27.2146 26.4399 27.401 26.513C27.7787 26.6689 28.1564 27.1024 28.539 27.8233L36.2107 41.9882L41.8419 27.1267C41.9547 26.7322 42.0577 26.4107 42.146 26.1574C42.2343 25.9041 42.2784 25.6898 42.2882 25.5193C42.3078 24.9396 41.832 24.6328 40.8657 24.5938L41.1208 23.8339L50.6172 22.1973C51.0832 22.1144 51.4805 22.0755 51.8141 22.0755ZM51.8141 21.5884C51.4511 21.5884 51.0195 21.6322 50.5289 21.7199L41.0374 23.3566C40.8608 23.3858 40.7137 23.5124 40.6548 23.6829L40.3997 24.4428C40.3507 24.5889 40.3752 24.7497 40.4586 24.8763C40.5469 25.003 40.6891 25.0809 40.8412 25.0858C41.8075 25.1247 41.7977 25.4121 41.7928 25.5047C41.7879 25.5924 41.7683 25.7482 41.68 26.0015C41.5868 26.2743 41.4838 26.6007 41.3759 26.9757L36.1371 40.824L28.9804 27.6041C28.539 26.7809 28.0877 26.2792 27.6021 26.0746C27.3519 25.9723 27.038 25.9236 26.6505 25.9236C26.2973 25.9236 25.8755 25.9626 25.3702 26.0502L15.0252 27.833C14.8486 27.8623 14.7014 27.9889 14.6426 28.1545L14.3826 28.9144C14.3336 29.0605 14.3532 29.2213 14.4415 29.3479C14.5298 29.4746 14.672 29.5525 14.829 29.5574C15.7953 29.5963 15.7855 29.874 15.7806 29.9811C15.7757 30.064 15.7561 30.2247 15.6678 30.478C15.5795 30.7362 15.4814 31.0576 15.3587 31.4522L3.93946 61.8863L3.72363 62.4903C3.70892 62.5244 3.70401 62.5585 3.69911 62.5975L3.64515 63.0651C3.64515 63.0797 3.64515 63.0895 3.64024 63.1041C3.62553 63.4353 3.73344 63.7227 3.94437 63.937C4.23377 64.2342 4.69977 64.3803 5.36197 64.3803C5.72004 64.3803 6.1517 64.3364 6.64222 64.2536L16.2956 62.5878C16.4673 62.5585 16.6145 62.4367 16.6733 62.276L16.9284 61.5697C16.9824 61.4236 16.9627 61.2628 16.8744 61.1362C16.7911 61.0095 16.6439 60.9267 16.4918 60.9219C15.5991 60.878 15.6089 60.576 15.6138 60.4348C15.6187 60.3422 15.6383 60.1669 15.7021 59.8697C15.7561 59.631 15.8394 59.3437 15.9523 58.9881L22.4615 41.808L30.6825 57.3271C31.2123 58.3694 31.7715 59.0124 32.3896 59.2803C32.7133 59.4216 33.1204 59.4898 33.6404 59.4898C34.0818 59.4898 34.6067 59.4362 35.2002 59.3339L40.0662 58.4961C40.2379 58.4669 40.3801 58.35 40.4439 58.1843L53.3249 23.6634C53.5211 23.0643 53.5309 22.9474 53.5358 22.8889C53.5456 22.5431 53.4426 22.2557 53.2317 22.0365C52.9423 21.7345 52.4763 21.5884 51.8141 21.5884Z" fill="#E577CB"/>
<path d="M103.47 13.7508C104.442 13.7508 105.28 13.892 105.987 14.1648C107.493 14.725 108.209 15.933 108.14 17.7791C108.091 19.0748 107.762 20.3851 107.154 21.71C106.551 23.0349 105.687 24.2722 104.569 25.4217C103.583 26.469 102.455 27.3166 101.194 27.9547C99.9337 28.5976 98.2806 29.1919 96.2401 29.7326L99.6001 35.8116C99.8307 36.211 100.1 36.4595 100.405 36.5569C100.542 36.6007 100.719 36.6251 100.934 36.6251C101.204 36.6251 101.533 36.591 101.925 36.5228L103.48 36.2549L102.308 39.4162C102.033 40.1468 101.685 40.6632 101.263 40.9506C100.836 41.2428 100.11 41.4815 99.0704 41.6568L95.0874 42.3437C94.5674 42.4313 94.1259 42.4752 93.763 42.4752C93.4245 42.4752 93.1547 42.4362 92.9487 42.3583C92.517 42.2024 92.1737 41.8273 91.9088 41.2428L87.71 31.1988L84.4725 31.7589L80.6171 42.0806C80.3865 42.7236 80.2639 43.1571 80.259 43.3763C80.2394 43.8732 80.622 44.1362 81.4068 44.1654L81.137 44.7451L72.5431 46.2259C72.1654 46.2892 71.8417 46.3233 71.5768 46.3233C70.8999 46.3233 70.5712 46.1187 70.5859 45.7047C70.5958 45.4806 70.6693 45.1932 70.8067 44.8425L80.0235 20.2779C80.1167 19.9613 80.2001 19.7032 80.2688 19.4986L80.3767 18.9871C80.3963 18.5195 80.0137 18.2711 79.2289 18.237L79.4398 17.6232L99.1194 14.233C100.949 13.9164 102.367 13.7556 103.377 13.7459C103.407 13.7508 103.436 13.7508 103.47 13.7508ZM86.0569 27.4676L91.0406 26.6103C92.1639 26.4154 93.0762 26.2157 93.7826 26.016C94.4938 25.8114 95.0972 25.5581 95.6024 25.2464C96.451 24.7447 97.1475 24.0627 97.692 23.2054C98.2414 22.3433 98.5259 21.4567 98.5651 20.5458C98.5995 19.747 98.2954 19.2502 97.6626 19.0553C97.4173 18.9822 97.0838 18.9433 96.6668 18.9433C96.0194 18.9433 95.1609 19.0358 94.0965 19.2161L88.8038 20.1318L86.0569 27.4676ZM103.47 13.2637C103.431 13.2637 103.397 13.2637 103.358 13.2637C102.337 13.2734 100.875 13.4439 99.036 13.7605L79.3613 17.1507C79.1847 17.18 79.0376 17.3066 78.9787 17.4722L78.7678 18.086C78.7188 18.2321 78.7384 18.3929 78.8267 18.5195C78.915 18.6461 79.0572 18.7241 79.2142 18.729C79.7194 18.7484 79.8469 18.8653 79.8715 18.8848C79.8764 18.8897 79.8862 18.8994 79.8911 18.9384L79.7979 19.3719C79.7292 19.5716 79.6507 19.8201 79.5575 20.1269L70.3456 44.6769C70.1886 45.0714 70.1052 45.4075 70.0954 45.6852C70.0856 45.9774 70.1788 46.2356 70.3652 46.4256C70.6203 46.6837 71.0127 46.8104 71.5768 46.8104C71.8711 46.8104 72.2145 46.7763 72.6265 46.7081L81.2253 45.2273C81.3823 45.1981 81.5196 45.0958 81.5883 44.9497L81.8581 44.3651C81.9267 44.219 81.9169 44.0436 81.8286 43.9073C81.7403 43.7709 81.5932 43.6832 81.4264 43.6783C80.9408 43.6637 80.8035 43.5468 80.7838 43.5224C80.774 43.5127 80.7495 43.4884 80.7544 43.3958C80.7593 43.3179 80.7936 43.05 81.0831 42.2462L84.8404 32.1925L87.4107 31.7492L91.4575 41.4328C91.7862 42.1537 92.2276 42.6164 92.7819 42.8162C93.0419 42.9136 93.3656 42.9623 93.7679 42.9623C94.1554 42.9623 94.6312 42.9136 95.1757 42.821L99.1587 42.1342C100.272 41.9442 101.057 41.6861 101.547 41.35C102.053 41.0041 102.465 40.4099 102.774 39.5818L103.946 36.4205C104.005 36.2549 103.976 36.0747 103.863 35.9383C103.77 35.8262 103.632 35.7629 103.485 35.7629C103.456 35.7629 103.431 35.7629 103.402 35.7678L101.842 36.0454C101.479 36.1088 101.18 36.138 100.939 36.138C100.733 36.138 100.62 36.1136 100.562 36.0941C100.38 36.0357 100.199 35.8555 100.032 35.5681L96.9759 30.0395C98.8006 29.5231 100.262 28.9825 101.425 28.3882C102.73 27.7257 103.907 26.8392 104.932 25.7578C106.08 24.5742 106.982 23.2785 107.605 21.9097C108.238 20.5361 108.586 19.1527 108.635 17.7986C108.729 15.217 107.345 14.1502 106.163 13.7118C105.398 13.4147 104.496 13.2637 103.47 13.2637ZM89.1668 20.5556L94.1848 19.6885C95.2149 19.5132 96.0537 19.4206 96.6717 19.4206C97.0396 19.4206 97.3241 19.4499 97.5252 19.5132C97.8146 19.6009 98.109 19.7908 98.0795 20.5166C98.0452 21.3398 97.7803 22.1533 97.2849 22.9326C96.7796 23.7266 96.1322 24.3599 95.3571 24.8177C94.8862 25.1051 94.3123 25.3438 93.6501 25.5338C92.9634 25.7286 92.0609 25.9283 90.9572 26.1183L86.8172 26.8343L89.1668 20.5556Z" fill="#7BA4DD"/>
<path d="M139.97 7.19462L138.935 9.96136C138.704 10.6287 138.341 11.1012 137.861 11.3788C137.375 11.6565 136.487 11.9049 135.202 12.1241L122.625 14.2966L120.217 20.7117L134.79 18.1983L133.485 21.6275C133.259 22.134 132.97 22.4945 132.612 22.7234C132.254 22.9524 131.616 23.1423 130.704 23.2982L121.423 24.8959C120.3 25.0908 119.461 25.3684 118.917 25.7386C118.362 26.1088 117.95 26.669 117.676 27.4288C117.676 27.4288 116.93 29.5721 115.998 32.0368L113.619 38.5153C113.619 38.5153 113.506 39.0414 112.613 39.3093L112.555 39.3239L112.545 39.3287C112.358 39.3775 112.147 39.4164 111.897 39.4408L106.301 40.4052C106.006 40.4588 105.741 40.488 105.516 40.4978C105.364 40.5221 105.231 40.5319 105.113 40.5319C103.681 40.5319 104.589 38.9391 104.952 37.9405C106.212 34.4723 109.234 26.5813 109.234 26.5764L113.786 14.4573C113.879 14.1407 113.962 13.8825 114.026 13.678L114.144 13.1665C114.159 12.6989 113.776 12.4505 112.996 12.4164L113.207 11.8075L139.97 7.19462ZM139.97 6.70752C139.96 6.70752 139.955 6.70752 139.945 6.70752C139.921 6.70752 139.896 6.71239 139.877 6.71726L113.109 11.3301C112.932 11.3593 112.785 11.486 112.726 11.6565L112.515 12.2654C112.466 12.4115 112.486 12.5722 112.574 12.6989C112.663 12.8255 112.805 12.9035 112.957 12.9083C113.197 12.9181 113.599 12.957 113.634 13.1227L113.536 13.5562L113.521 13.5951C113.457 13.79 113.384 14.0287 113.3 14.3112L108.758 26.4157C108.758 26.4157 108.758 26.4157 108.758 26.4205L108.66 26.6787C106.693 31.8469 105.207 35.7875 104.481 37.7846C104.427 37.9308 104.363 38.0915 104.294 38.262C103.971 39.0511 103.608 39.9425 104.02 40.5514C104.235 40.868 104.598 41.0287 105.109 41.0287C105.246 41.0287 105.398 41.019 105.56 40.9946C105.815 40.98 106.09 40.9508 106.384 40.8972L111.956 39.9376C112.211 39.9133 112.442 39.8743 112.658 39.8158C112.667 39.8158 112.677 39.811 112.682 39.811L112.741 39.7964C113.761 39.4944 114.026 38.8757 114.08 38.6858L116.449 32.2219C117.372 29.7815 118.122 27.6286 118.132 27.6091C118.372 26.9466 118.716 26.4741 119.182 26.1624C119.667 25.8311 120.447 25.573 121.497 25.3928L130.777 23.7902C131.763 23.6197 132.45 23.4102 132.867 23.1472C133.304 22.8744 133.662 22.4312 133.927 21.8418C133.931 21.832 133.931 21.8272 133.936 21.8174L135.241 18.3834C135.305 18.2177 135.275 18.0375 135.163 17.9011C135.069 17.7891 134.927 17.7258 134.785 17.7258C134.756 17.7258 134.731 17.7258 134.702 17.7306L120.972 20.098L122.983 14.7398L135.285 12.6161C136.639 12.3823 137.561 12.1192 138.101 11.8123C138.689 11.4762 139.126 10.9112 139.396 10.1318L140.416 7.40408C140.446 7.34562 140.46 7.27743 140.46 7.20436C140.46 6.92672 140.244 6.70752 139.97 6.70752Z" fill="#7BA4DD"/>
<path d="M77.5567 17.9888L76.4628 20.8432C76.2372 21.4326 75.8595 21.871 75.3347 22.1681C74.8098 22.4653 73.9465 22.7137 72.7447 22.9232L60.3199 25.0664L57.9163 31.4669L72.4553 28.9584L71.2192 32.2853C70.9936 32.7918 70.6894 33.1718 70.3117 33.4299C69.9291 33.6881 69.3258 33.8878 68.4968 34.0291L59.2358 35.6268C58.0341 35.8314 57.1708 36.1139 56.6459 36.4646C56.1161 36.8153 55.6894 37.3998 55.3755 38.2182L52.8346 44.9694L69.831 42.0127L68.7666 44.8087C68.5851 45.2763 68.4036 45.6611 68.227 45.968C68.0504 46.27 67.815 46.5184 67.5207 46.7035C67.2264 46.8886 66.8585 47.0493 66.4219 47.176C65.9805 47.3075 65.4311 47.4293 64.7689 47.5462L44.0199 51.1264C43.6226 51.1946 43.2842 51.2287 43.0046 51.2287C42.3228 51.2287 41.9843 51.0241 42.0039 50.6149L42.0824 50.2301L42.2884 49.743L51.4856 25.2369C51.5837 24.9203 51.6622 24.6621 51.7309 24.4575L51.8437 23.9461C51.8633 23.4785 51.4758 23.23 50.6959 23.2008L50.9068 22.5919L77.5567 17.9888ZM77.5567 17.5017C77.5273 17.5017 77.5027 17.5066 77.4733 17.5115L50.8234 22.1097C50.6469 22.1389 50.4997 22.2656 50.4457 22.4312L50.2348 23.0401C50.1858 23.1862 50.2054 23.3469 50.2937 23.4736C50.382 23.6002 50.5242 23.6782 50.6812 23.683C50.8774 23.6879 51.3189 23.7269 51.3532 23.8974L51.26 24.326C51.1913 24.5257 51.1128 24.7741 51.0196 25.081L41.8273 49.5725L41.6311 50.0401C41.6164 50.0694 41.6115 50.0986 41.6017 50.1327L41.5232 50.5175C41.5183 50.5418 41.5134 50.5711 41.5134 50.5954C41.5036 50.8828 41.5968 51.1361 41.7832 51.3261C42.0383 51.5891 42.4356 51.7109 43.0095 51.7109C43.3185 51.7109 43.6766 51.6768 44.1082 51.6037L64.8572 48.0235C65.5341 47.9066 66.1129 47.78 66.5691 47.6436C67.04 47.5072 67.452 47.327 67.7905 47.1126C68.1535 46.8837 68.4429 46.5768 68.6587 46.2066C68.85 45.8803 69.0413 45.4662 69.2277 44.9791L70.2921 42.1832C70.3559 42.0176 70.3265 41.8373 70.2136 41.7009C70.1204 41.5889 69.9782 41.5256 69.8359 41.5256C69.8065 41.5256 69.782 41.5305 69.7525 41.5305L53.5998 44.341L55.8414 38.3838C56.1161 37.6677 56.484 37.1563 56.9255 36.864C57.3915 36.5523 58.2008 36.2941 59.329 36.0993L68.59 34.5016C69.4975 34.3457 70.1499 34.1265 70.5962 33.8294C71.0475 33.5225 71.4105 33.0695 71.6754 32.485C71.6803 32.4752 71.6852 32.4655 71.6901 32.4557L72.9164 29.1581C72.9458 29.0996 72.9605 29.0314 72.9605 28.9584C72.9605 28.6904 72.7447 28.4712 72.4749 28.4712H72.47C72.4651 28.4712 72.4553 28.4712 72.4504 28.4712C72.4259 28.4712 72.4013 28.4761 72.3817 28.481L58.6914 30.8386L60.6976 25.4951L72.8428 23.4005C74.1133 23.1813 75.0158 22.9134 75.5897 22.5871C76.2176 22.2363 76.6689 21.7103 76.9337 21.0137L78.0276 18.1593C78.0914 17.9937 78.0619 17.8135 77.9491 17.6771C77.8412 17.565 77.7039 17.5017 77.5567 17.5017Z" fill="#7BA4DD"/>
<path d="M103.902 0.487102C116.023 0.487102 127.644 2.35757 135.394 6.21055L109.313 10.7065C102.887 8.98704 95.1123 8.33432 87.2199 8.33432C83.0652 8.33432 78.8762 8.51942 74.8392 8.82142C52.4078 10.5068 28.4459 20.2488 28.4459 20.2488C43.4607 12.1435 60.7073 5.64064 86.4449 1.77305C92.13 0.920623 98.0702 0.487102 103.902 0.487102ZM103.902 0C97.977 0 92.076 0.433521 86.3762 1.29082C63.5229 4.72489 45.5847 10.4386 28.2105 19.8202C27.9799 19.942 27.8916 20.2245 27.9996 20.4583C28.083 20.6336 28.2595 20.7359 28.441 20.7359C28.5048 20.7359 28.5686 20.7262 28.6274 20.7018C28.8678 20.6044 52.7757 10.9695 74.8735 9.30852C79.1558 8.98704 83.3056 8.82142 87.215 8.82142C95.9413 8.82142 103.333 9.6154 109.18 11.179C109.22 11.1887 109.264 11.1936 109.308 11.1936C109.337 11.1936 109.367 11.1936 109.391 11.1887L135.472 6.69278C135.683 6.65869 135.845 6.49307 135.874 6.28362C135.904 6.07416 135.801 5.86958 135.61 5.77703C128.119 2.0507 116.857 0 103.902 0Z" fill="#7BA4DD"/>
<path d="M140.853 9.85893C143.104 11.9486 144.512 14.389 144.806 17.1947C146.337 31.7152 121.713 53.0649 80.3082 63.596C66.6914 67.0593 55.2721 68.2186 46.0699 68.2186C27.288 68.2186 17.767 63.3768 17.767 63.3768C23.2412 64.5313 28.9852 64.9892 34.6605 64.9892C51.3774 64.9892 67.5007 61.0241 74.4465 59.2754C83.5946 56.9666 124.033 41.8859 124.862 26.0843L130.993 25.0224C132.166 24.8227 132.975 24.5597 133.549 24.1992C134.201 23.7852 134.721 23.1617 135.089 22.3385L135.109 22.2946L137.517 15.9574L122.934 18.4758L123.92 15.8454L135.501 13.8483C137.027 13.5853 138.057 13.2833 138.729 12.8984C139.587 12.4113 140.21 11.6222 140.583 10.5555L140.853 9.85893ZM140.853 9.37183C140.814 9.37183 140.779 9.3767 140.74 9.38644C140.578 9.42541 140.451 9.53744 140.392 9.68844L140.132 10.385C139.793 11.3495 139.244 12.0509 138.493 12.4747C137.875 12.8303 136.87 13.1225 135.423 13.3661L123.842 15.3632C123.67 15.3924 123.528 15.5093 123.464 15.6749L122.478 18.3053C122.419 18.4709 122.449 18.6511 122.561 18.7875C122.655 18.8995 122.797 18.9629 122.939 18.9629C122.969 18.9629 122.993 18.9629 123.023 18.958L136.762 16.5907L134.653 22.1339L134.643 22.1583C134.314 22.8889 133.863 23.4393 133.289 23.7998C132.769 24.1262 132.014 24.3648 130.915 24.5499L124.779 25.6118C124.553 25.6508 124.386 25.8407 124.371 26.0648C123.94 34.2725 112.265 42.1538 102.543 47.3171C90.6973 53.6104 78.4197 57.7752 74.3238 58.8078C68.1433 60.3666 51.7256 64.5069 34.6605 64.5069C28.5584 64.5069 22.9076 63.9662 17.8651 62.9044C17.8308 62.8995 17.7964 62.8946 17.7621 62.8946C17.561 62.8946 17.3697 63.0213 17.301 63.2161C17.2176 63.445 17.3206 63.7032 17.5414 63.8104C17.9338 64.0101 27.3861 68.7057 46.0699 68.7057C56.7633 68.7057 68.3248 67.147 80.4259 64.0637C99.6738 59.1683 116.906 51.4282 128.953 42.2756C140.122 33.7854 146.082 24.623 145.292 17.1411C144.998 14.3208 143.615 11.7489 141.186 9.49847C141.093 9.41567 140.976 9.37183 140.853 9.37183Z" fill="#7BA4DD"/>
<path d="M48.1744 19.7813C49.0132 19.7813 49.4252 20.0395 49.4056 20.5509C49.4007 20.6191 49.3418 20.8334 49.2241 21.189L36.348 55.7148L31.4821 56.5526C30.9082 56.65 30.4176 56.6987 30.0056 56.6987C29.5641 56.6987 29.211 56.6452 28.951 56.5283C28.4507 56.3091 27.9601 55.7294 27.4843 54.7942L18.7531 38.3155L11.8515 56.5185C11.7338 56.879 11.6455 57.1907 11.5866 57.4538C11.5278 57.7217 11.4934 57.9409 11.4836 58.1065C11.464 58.7202 11.9055 59.0515 12.8276 59.1002L12.5726 59.8065L2.91916 61.4723C2.45317 61.5552 2.05585 61.5941 1.72229 61.5941C0.883507 61.5941 0.471472 61.336 0.491093 60.8196L0.54505 60.352L0.760878 59.7529L12.1851 29.309C12.3028 28.9145 12.4058 28.593 12.4892 28.3397C12.5775 28.0864 12.6216 27.8721 12.6314 27.7016C12.6511 27.1219 12.1802 26.815 11.2089 26.7761L11.4689 26.0162L21.809 24.2334C22.2799 24.1555 22.6773 24.1116 23.0059 24.1116C23.3247 24.1116 23.5798 24.1506 23.7662 24.2237C24.1439 24.3795 24.5216 24.8131 24.9042 25.534L32.5759 39.6989L38.2022 24.8228C38.315 24.4282 38.418 24.1068 38.5063 23.8535C38.5946 23.6002 38.6387 23.3858 38.6485 23.2154C38.6682 22.6357 38.1924 22.3288 37.226 22.2899L37.4811 21.53L46.9775 19.8933C47.4435 19.8203 47.8458 19.7813 48.1744 19.7813ZM48.1744 19.2942C47.8114 19.2942 47.3798 19.338 46.8893 19.4257L37.3977 21.0624C37.2211 21.0916 37.074 21.2182 37.0151 21.3887L36.76 22.1486C36.711 22.2947 36.7355 22.4555 36.8189 22.5821C36.9072 22.7088 37.0494 22.7867 37.2015 22.7916C38.1678 22.8305 38.158 23.1179 38.1531 23.2105C38.1482 23.2982 38.1286 23.454 38.0403 23.7073C37.9471 23.9801 37.8441 24.3065 37.7362 24.6815L32.4974 38.5298L25.3408 25.3099C24.8993 24.4867 24.448 23.985 23.9624 23.7804C23.7122 23.6781 23.3983 23.6294 23.0108 23.6294C22.6576 23.6294 22.2358 23.6684 21.7306 23.756L11.3855 25.5388C11.2089 25.5681 11.0618 25.6947 11.0029 25.8603L10.7429 26.6202C10.6939 26.7663 10.7135 26.9271 10.8018 27.0537C10.8901 27.1804 11.0323 27.2583 11.1893 27.2632C12.1556 27.3021 12.1458 27.5798 12.1409 27.687C12.136 27.7698 12.1164 27.9305 12.0281 28.1838C11.9398 28.442 11.8417 28.7635 11.7191 29.158L0.304695 59.5921L0.0888672 60.1961C0.0741517 60.2302 0.0692465 60.2692 0.0643413 60.3033L0.0103842 60.7709C0.0103842 60.7855 0.0103842 60.7953 0.00547906 60.8099C-0.0092365 61.1411 0.0986776 61.4285 0.309601 61.6428C0.599007 61.94 1.065 62.0861 1.7272 62.0861C2.08528 62.0861 2.51693 62.0423 3.00745 61.9594L12.6609 60.2936C12.8325 60.2643 12.9797 60.1426 13.0386 59.9818L13.2936 59.2755C13.3476 59.1294 13.328 58.9686 13.2397 58.842C13.1563 58.7154 13.0091 58.6325 12.8571 58.6277C11.9643 58.5838 11.9741 58.2818 11.979 58.1406C11.9839 58.048 12.0036 57.8727 12.0673 57.5755C12.1213 57.3369 12.2047 57.0495 12.3175 56.6939L18.8267 39.5138L27.0478 55.0329C27.5775 56.0753 28.1367 56.7182 28.7548 56.9861C29.0785 57.1274 29.4857 57.1956 30.0056 57.1956C30.4471 57.1956 30.9719 57.142 31.5654 57.0397L36.4314 56.2019C36.6031 56.1727 36.7453 56.0558 36.8091 55.8902L49.6901 21.3692C49.8863 20.7701 49.8961 20.6532 49.901 20.5948C49.9109 20.2489 49.8078 19.9615 49.5969 19.7423C49.3026 19.4403 48.8415 19.2942 48.1744 19.2942Z" fill="#7BA4DD"/>
<path d="M73.2002 47.9407C72.7047 47.9407 72.3663 47.8384 72.1652 47.629C72.0229 47.4828 71.9542 47.2929 71.9641 47.0688C71.9739 46.8155 72.0523 46.5086 72.1995 46.1287L81.4163 21.5641C81.5095 21.2621 81.5929 20.9942 81.6616 20.7896L81.7646 20.3025C81.7646 20.2343 81.7401 20.1515 81.6763 20.0833C81.588 19.9859 81.3722 19.869 80.8474 19.8495L80.5187 19.8349L80.8817 18.7779L100.704 15.3633C102.533 15.0467 103.975 14.8811 105 14.8713H105.099C106.094 14.8713 106.967 15.0175 107.708 15.3049C109.312 15.904 110.092 17.1997 110.019 19.153C109.969 20.473 109.631 21.8272 109.008 23.1764C108.395 24.516 107.512 25.7873 106.379 26.9563C105.378 28.0182 104.216 28.8901 102.94 29.538C101.748 30.1469 100.169 30.7265 98.2411 31.2575L101.449 37.0637C101.65 37.4047 101.871 37.6141 102.116 37.6921C102.229 37.731 102.381 37.7457 102.572 37.7457C102.823 37.7457 103.146 37.7116 103.519 37.6482L105.496 37.3073L104.181 40.8631C103.887 41.6425 103.504 42.1978 103.043 42.5144C102.582 42.831 101.832 43.0746 100.753 43.2645L96.7696 43.9513C96.2398 44.0439 95.7787 44.0877 95.4059 44.0877C95.0381 44.0877 94.7388 44.0439 94.5034 43.9562C94.0178 43.776 93.6205 43.3619 93.3261 42.7141L89.2009 32.8405L86.297 33.3422L82.4906 43.5324C82.2159 44.2972 82.1521 44.6187 82.1472 44.7502C82.1423 44.8817 82.1718 44.9742 82.2404 45.0522C82.3729 45.1934 82.6525 45.2714 83.0547 45.286L83.4226 45.3006L82.9468 46.3333L74.2253 47.8384C73.8133 47.9066 73.4798 47.9407 73.2002 47.9407ZM88.0629 28.5151L92.6247 27.7308C93.7333 27.5409 94.6456 27.3412 95.3422 27.1414C96.0289 26.9466 96.6175 26.6933 97.1031 26.401C97.9125 25.9237 98.5894 25.2612 99.1143 24.438C99.6342 23.6197 99.9138 22.7673 99.9482 21.9002C99.9825 20.9942 99.5508 20.7555 99.2222 20.6532C99.0015 20.585 98.6875 20.5509 98.3 20.5509C97.6672 20.5509 96.8186 20.6435 95.7738 20.8189L90.6185 21.7103L88.0629 28.5151Z" fill="white"/>
<path d="M105.099 15.1148C106.07 15.1148 106.909 15.256 107.615 15.5288C109.121 16.089 109.837 17.297 109.769 19.1431C109.72 20.4388 109.391 21.7491 108.783 23.074C108.179 24.399 107.316 25.6362 106.198 26.7858C105.212 27.833 104.084 28.6806 102.823 29.3187C101.562 29.9617 99.9093 30.5559 97.8687 31.0966L101.229 37.1756C101.459 37.5751 101.729 37.8235 102.033 37.9209C102.171 37.9648 102.347 37.9891 102.563 37.9891C102.833 37.9891 103.161 37.955 103.554 37.8868L105.109 37.6189L103.936 40.7802C103.662 41.5109 103.313 42.0272 102.892 42.3146C102.465 42.6068 101.739 42.8455 100.699 43.0209L96.716 43.7077C96.196 43.7954 95.7546 43.8392 95.3916 43.8392C95.0531 43.8392 94.7833 43.8002 94.5773 43.7223C94.1457 43.5664 93.8023 43.1914 93.5374 42.6068L89.3386 32.5628L86.1012 33.123L82.2457 43.4447C82.0151 44.0876 81.8925 44.5212 81.8876 44.7403C81.868 45.2372 82.2506 45.5002 83.0354 45.5295L82.7656 46.114L74.1718 47.5948C73.7941 47.6581 73.4703 47.6922 73.2054 47.6922C72.5285 47.6922 72.1999 47.4827 72.2146 47.0736C72.2244 46.8495 72.298 46.567 72.4353 46.2114L81.6522 21.6468C81.7454 21.3302 81.8288 21.072 81.8974 20.8675L82.0053 20.356C82.025 19.8884 81.6424 19.64 80.8575 19.6059L81.0685 18.9921L100.748 15.6019C102.578 15.2853 103.995 15.1245 105.006 15.1148C105.035 15.1148 105.065 15.1148 105.099 15.1148ZM87.6855 28.8267L92.6692 27.9694C93.7925 27.7746 94.7049 27.5749 95.4112 27.3752C96.1225 27.1706 96.7258 26.9173 97.231 26.6055C98.0796 26.1038 98.7762 25.4219 99.3206 24.5646C99.87 23.7024 100.155 22.8159 100.194 21.905C100.228 21.1061 99.924 20.6093 99.2912 20.4145C99.046 20.3414 98.7124 20.3024 98.2955 20.3024C97.648 20.3024 96.7896 20.395 95.7251 20.5752L90.4324 21.491L87.6855 28.8267ZM105.099 14.6277C105.06 14.6277 105.025 14.6277 104.986 14.6277C103.966 14.6374 102.504 14.8079 100.665 15.1245L80.99 18.5148L80.7055 18.5635L80.6123 18.8362L80.4013 19.45L80.1904 20.0686L80.8477 20.093C81.353 20.1125 81.4805 20.2294 81.505 20.2488C81.5099 20.2537 81.5197 20.2635 81.5246 20.3024L81.4314 20.7359C81.3628 20.9405 81.2843 21.1841 81.1911 21.491L71.9791 46.0409C71.8222 46.4355 71.7388 46.7716 71.729 47.0492C71.7192 47.3415 71.8124 47.5996 71.9988 47.7896C72.2538 48.0526 72.6462 48.1744 73.2103 48.1744C73.5047 48.1744 73.848 48.1403 74.2601 48.0721L82.8588 46.5913L83.1139 46.5475L83.2218 46.3137L83.4916 45.734L83.8006 45.0667L83.0649 45.0424C82.5792 45.0277 82.4419 44.9108 82.4223 44.8865C82.4125 44.8767 82.3879 44.8524 82.3928 44.7598C82.3978 44.6819 82.4321 44.414 82.7215 43.6103L86.4789 33.5565L89.0492 33.1132L93.096 42.7968C93.4246 43.5177 93.8661 43.9756 94.4204 44.1802C94.6803 44.2776 95.0041 44.3263 95.4063 44.3263C95.7938 44.3263 96.2696 44.2776 96.8141 44.1851L100.797 43.4982C101.911 43.3083 102.695 43.0501 103.186 42.714C103.691 42.3682 104.103 41.7739 104.412 40.9458L105.585 37.7845L105.879 36.9906L105.04 37.1367L103.485 37.4046C103.122 37.4679 102.823 37.4971 102.583 37.4971C102.377 37.4971 102.264 37.4728 102.205 37.4533C102.023 37.3948 101.842 37.2146 101.675 36.9272L98.6192 31.3986C100.444 30.8823 101.906 30.3416 103.068 29.7473C104.373 29.0849 105.55 28.1984 106.575 27.117C107.723 25.9333 108.626 24.6376 109.249 23.2689C109.882 21.8953 110.23 20.5119 110.279 19.1577C110.372 16.5761 108.989 15.5093 107.807 15.0709C107.027 14.7787 106.124 14.6277 105.099 14.6277ZM90.7954 21.9196L95.8134 21.0526C96.8435 20.8772 97.6823 20.7847 98.3004 20.7847C98.6683 20.7847 98.9528 20.8139 99.1539 20.8772C99.4433 20.9649 99.7376 21.1549 99.7082 21.8806C99.6738 22.7038 99.4089 23.5173 98.9135 24.2967C98.4083 25.0906 97.7608 25.7239 96.9858 26.1818C96.5149 26.4691 95.941 26.7078 95.2788 26.8978C94.5921 27.0926 93.6895 27.2923 92.5858 27.4823L88.4458 28.1984L90.7954 21.9196Z" fill="#222222"/>
<path d="M106.732 42.1489C106.31 42.1489 106.016 42.0222 105.849 41.7787C105.511 41.277 105.849 40.4489 106.148 39.7182C106.217 39.5478 106.286 39.387 106.34 39.236C107.071 37.2292 108.557 33.2788 110.529 28.1106L115.174 15.748C115.252 15.4703 115.336 15.2219 115.4 15.0222L115.522 14.4864C115.522 14.4036 115.532 14.0723 114.605 14.0334L114.276 14.0187L114.634 12.9617L141.976 8.24658L140.794 11.4127C140.544 12.1288 140.146 12.65 139.612 12.9569C139.097 13.2491 138.199 13.5024 136.875 13.7314L124.435 15.8795L122.223 21.7637L136.801 19.2502L135.344 23.0788C135.094 23.639 134.77 24.0433 134.373 24.2917C133.985 24.5401 133.328 24.7399 132.376 24.9006L123.101 26.4983C122.012 26.6834 121.202 26.9562 120.692 27.302C120.177 27.643 119.804 28.1593 119.545 28.8754C119.54 28.8948 118.789 31.0478 117.862 33.4833L115.483 39.9618C115.488 39.9618 115.331 40.6048 114.316 40.9068L114.247 40.9263C114.021 40.9896 113.796 41.0285 113.541 41.048L107.968 42.0125C107.679 42.0612 107.404 42.0953 107.154 42.105C107.012 42.1343 106.865 42.1489 106.732 42.1489Z" fill="white"/>
<path d="M141.599 8.5583L140.564 11.325C140.334 11.9924 139.971 12.4649 139.49 12.7425C139.004 13.0202 138.116 13.2686 136.831 13.4878L124.254 15.6603L121.846 22.0754L136.419 19.5619L135.114 22.996C134.889 23.4977 134.599 23.8631 134.241 24.0871C133.883 24.3161 133.246 24.506 132.333 24.6619L123.053 26.2645C121.929 26.4544 121.091 26.737 120.546 27.1072C119.992 27.4774 119.58 28.0375 119.305 28.7974C119.305 28.7974 118.559 30.9406 117.627 33.4054L115.248 39.8838C115.248 39.8838 115.136 40.4099 114.243 40.6778L114.184 40.6924H114.174C113.988 40.7411 113.777 40.785 113.527 40.8045L107.93 41.7689C107.636 41.8225 107.371 41.8469 107.145 41.8615C106.993 41.8858 106.861 41.8956 106.738 41.8956C105.306 41.8956 106.213 40.3027 106.576 39.3042C107.837 35.836 110.858 27.945 110.858 27.9401L115.41 15.821C115.504 15.5044 115.587 15.2413 115.651 15.0416L115.768 14.5253C115.783 14.0577 115.4 13.8093 114.621 13.7752L114.831 13.1663L141.599 8.5583ZM142.355 7.93481L141.516 8.08094L114.738 12.6987L114.449 12.7474L114.356 13.0202L114.145 13.629L113.934 14.2477L114.591 14.272C114.831 14.2818 115.234 14.3256 115.268 14.4863L115.17 14.9199L115.155 14.9588C115.091 15.1537 115.018 15.3923 114.934 15.6749L110.392 27.7794V27.7842L110.294 28.0424C108.322 33.2105 106.841 37.1512 106.115 39.1483C106.061 39.2945 105.997 39.4552 105.929 39.6257C105.605 40.4148 105.242 41.3062 105.654 41.9151C105.87 42.2317 106.233 42.3924 106.743 42.3924C106.88 42.3924 107.032 42.3827 107.194 42.3583C107.449 42.3437 107.724 42.3145 108.018 42.2609L113.59 41.3013C113.841 41.277 114.071 41.238 114.292 41.1795L114.321 41.1747L114.38 41.16C115.4 40.858 115.665 40.2394 115.719 40.0495L118.089 33.5856C119.011 31.1452 119.761 28.9922 119.771 28.9728C120.011 28.3103 120.355 27.8378 120.821 27.5261C121.306 27.1948 122.086 26.9367 123.136 26.7564L132.417 25.1539C133.403 24.9834 134.089 24.7739 134.506 24.506C134.943 24.2333 135.301 23.79 135.566 23.2006L135.571 23.186L135.576 23.1714L136.88 19.7422L137.184 18.9433L136.336 19.0895L122.606 21.4568L124.617 16.0986L136.92 13.9749C138.273 13.7411 139.196 13.478 139.735 13.1712C140.324 12.8351 140.76 12.27 141.03 11.4907L142.06 8.73366L142.355 7.93481Z" fill="#222222"/>
<path d="M44.6372 52.8261C44.1369 52.8261 43.7935 52.7239 43.5875 52.5144C43.4501 52.3731 43.3766 52.1783 43.3864 51.9591L43.4698 51.5353L43.6856 51.0044L52.8779 26.508C52.9711 26.2011 53.0545 25.9381 53.1232 25.7335L53.2262 25.2464C53.2262 25.1636 53.236 24.8324 52.3089 24.7983L51.9803 24.7837L52.3432 23.7267L79.5621 19.031L78.3113 22.2848C78.0661 22.923 77.6491 23.4101 77.0752 23.7315C76.5258 24.0433 75.6527 24.2966 74.4068 24.5158L62.1193 26.6347L59.912 32.5091L74.4509 30.0054L73.0677 33.7317C72.8175 34.2919 72.4791 34.7108 72.067 34.9933C71.655 35.271 71.032 35.4804 70.1589 35.6314L60.8979 37.2291C59.7354 37.4289 58.8966 37.6968 58.4012 38.028C57.9155 38.3495 57.5182 38.9048 57.219 39.6695L54.8302 46.0213L71.8316 43.0646L70.6102 46.26C70.4238 46.7374 70.2374 47.1368 70.0559 47.4534C69.8597 47.7895 69.5948 48.0672 69.2711 48.2717C68.9473 48.4763 68.5598 48.6419 68.1085 48.7735C67.6622 48.9098 67.0981 49.0365 66.426 49.1485L45.6771 52.7287C45.2749 52.7921 44.9315 52.8261 44.6372 52.8261Z" fill="white"/>
<path d="M79.1849 19.3476L78.091 22.202C77.8654 22.7914 77.4877 23.2298 76.9628 23.5221C76.438 23.8192 75.5747 24.0676 74.3729 24.2771L61.9481 26.4203L59.5445 32.8209L74.0835 30.3123L72.8474 33.6392C72.6217 34.1458 72.3176 34.5257 71.9399 34.7839C71.5622 35.042 70.954 35.2417 70.125 35.3781L60.864 36.9758C59.6672 37.1853 58.7989 37.4629 58.2741 37.8136C57.7443 38.1644 57.3176 38.7489 57.0036 39.5672L54.4627 46.3184L71.4592 43.3617L70.3948 46.1577C70.2133 46.6253 70.0318 47.0101 69.8552 47.317C69.6786 47.619 69.4432 47.8674 69.1489 48.0525C68.8546 48.2376 68.4867 48.3984 68.0501 48.525C67.6136 48.6565 67.0642 48.7783 66.3971 48.8952L45.6481 52.4754C45.2508 52.5436 44.9123 52.5777 44.6327 52.5777C43.9509 52.5777 43.6125 52.3731 43.6272 51.964L43.7057 51.5791L43.9117 51.092L53.1089 26.5859C53.207 26.2693 53.2855 26.0063 53.3542 25.8066L53.467 25.2951C53.4817 24.8275 53.0991 24.5791 52.3192 24.5499L52.5301 23.941L79.1849 19.3476ZM79.9501 18.7241L79.1015 18.8703L52.4516 23.4685L52.1671 23.5172L52.0739 23.79L51.863 24.3989L51.6472 25.0175L52.3094 25.0418C52.5056 25.0467 52.947 25.0857 52.9814 25.2562L52.8882 25.6848C52.8195 25.8845 52.741 26.1378 52.6478 26.4398L43.4555 50.9313L43.2593 51.3989L43.2397 51.4428L43.2299 51.4915L43.1514 51.8763L43.1416 51.9152V51.9542C43.1318 52.2416 43.225 52.4949 43.4114 52.6849C43.6664 52.943 44.0637 53.0697 44.6377 53.0697C44.9467 53.0697 45.3048 53.0356 45.7364 52.9625L66.4854 49.3823C67.1623 49.2654 67.7411 49.1388 68.1973 49.0024C68.6682 48.866 69.0802 48.6858 69.4187 48.4714C69.7817 48.2376 70.0711 47.9356 70.2869 47.5654C70.4782 47.2391 70.6695 46.825 70.8559 46.3379L71.9252 43.542L72.2293 42.7431L71.3807 42.8893L55.228 45.6998L57.4696 39.7426C57.7443 39.0265 58.1122 38.5151 58.5537 38.2228C59.0197 37.9111 59.829 37.6529 60.9572 37.4581L70.2182 35.8604C71.1257 35.7045 71.783 35.4853 72.2244 35.1882C72.6757 34.8813 73.0387 34.4283 73.3036 33.8438L73.3085 33.8292L73.3134 33.8145L74.5495 30.4876L74.8438 29.6937L74.005 29.8398L60.3097 32.2022L62.316 26.8587L74.4612 24.7642C75.7316 24.545 76.6342 24.2771 77.2081 23.9507C77.836 23.6 78.2872 23.0739 78.5521 22.3774L79.646 19.523L79.9501 18.7241Z" fill="#222222"/>
<path d="M29.9568 21.3984C47.3064 12.0314 65.2202 6.32257 88.0391 2.89824C93.734 2.04094 99.6154 1.60742 105.531 1.60742C118.451 1.60742 129.674 3.64838 137.135 7.3601L137.802 7.69133L110.932 12.3237L110.878 12.3091C105.011 10.7406 97.5993 9.94174 88.8485 9.94174C84.9341 9.94174 80.7745 10.1025 76.4874 10.4288C54.3503 12.0899 30.4032 21.7394 30.1677 21.8368L29.9568 21.3984Z" fill="white"/>
<path d="M105.531 1.85112C117.652 1.85112 129.272 3.72159 137.022 7.57457L110.941 12.0705C104.516 10.351 96.741 9.69833 88.8485 9.69833C84.6938 9.69833 80.5048 9.88343 76.4678 10.1854C54.0364 11.8708 30.0746 21.6128 30.0746 21.6128C45.0893 13.5075 62.336 7.00466 88.0735 3.13707C93.7586 2.28464 99.6988 1.85112 105.531 1.85112ZM105.531 1.36401C99.6056 1.36401 93.7047 1.79753 88.0048 2.65483C65.1516 6.0889 47.2133 11.8026 29.8391 21.1842L30.261 22.061C30.5013 21.9636 54.4092 12.3287 76.5071 10.6677C80.7893 10.3462 84.9391 10.1806 88.8485 10.1806C97.5749 10.1806 104.967 10.9745 110.814 12.5381L110.917 12.5674L111.025 12.5479L137.106 8.05193L138.572 7.79863L137.238 7.13617C129.748 3.41471 118.486 1.36401 105.531 1.36401Z" fill="#222222"/>
<path d="M47.6984 69.8261C37.9714 69.8261 30.7706 68.506 26.4442 67.3954C21.745 66.1923 19.3807 65.0038 19.2826 64.9551L17.6394 64.1173L19.4445 64.4972C24.5018 65.5639 30.1673 66.1046 36.2889 66.1046C53.3884 66.1046 69.8257 61.9594 76.016 60.3958C80.1168 59.3631 92.4239 55.1887 104.29 48.8807C114.066 43.6882 125.814 35.7484 126.25 27.4238L126.26 27.229L132.588 26.1379C133.721 25.9431 134.506 25.6946 135.055 25.3537C135.663 24.9689 136.154 24.3795 136.502 23.6001L138.778 17.6282L124.195 20.1417L125.382 16.9852L137.105 14.9638C138.601 14.7056 139.602 14.4133 140.254 14.0431C141.059 13.5853 141.647 12.8449 142.001 11.8317L142.393 10.7893L142.663 11.0377C145.047 13.2492 146.406 15.7675 146.69 18.5294C147.47 25.9236 141.549 35.0032 130.449 43.4446C118.431 52.5778 101.229 60.3032 82.0102 65.1937C69.914 68.2674 58.3721 69.8261 47.6984 69.8261Z" fill="white"/>
<path d="M142.482 11.2179C144.733 13.3076 146.141 15.7431 146.435 18.5537C147.966 33.0742 123.342 54.4239 81.9371 64.955C68.3203 68.4183 56.901 69.5776 47.7038 69.5776C28.9218 69.5776 19.4008 64.7358 19.4008 64.7358C24.8799 65.8903 30.619 66.3481 36.2943 66.3481C53.0112 66.3481 69.1345 62.3831 76.0803 60.6344C85.2285 58.3256 125.667 43.2449 126.496 27.4433L132.627 26.3814C133.8 26.1817 134.609 25.9187 135.183 25.5631C135.835 25.149 136.355 24.5255 136.723 23.7023L136.743 23.6585L139.156 17.3213L124.573 19.8396L125.559 17.2093L137.14 15.2121C138.666 14.9491 139.696 14.6471 140.373 14.2623C141.231 13.7752 141.854 12.9861 142.227 11.9193L142.482 11.2179ZM142.281 10.3655L142.026 11.0474L141.761 11.744C141.422 12.7084 140.873 13.4099 140.122 13.8336C139.504 14.1892 138.499 14.4815 137.052 14.725L125.471 16.7222L125.191 16.7709L125.093 17.0339L124.107 19.6643L123.808 20.4582L124.651 20.3121L138.391 17.9448L136.282 23.4831L136.272 23.5075C135.943 24.2381 135.492 24.7886 134.918 25.149C134.398 25.4754 133.648 25.7141 132.544 25.8992L126.408 26.9611L126.02 27.0292L126 27.4189C125.569 35.6266 113.894 43.5079 104.172 48.6712C92.3263 54.9646 80.0486 59.1293 75.9527 60.1619C69.7722 61.7207 53.3545 65.861 36.2894 65.861C30.1873 65.861 24.5366 65.3203 19.494 64.2585L15.8789 63.4937L19.1654 65.1645C19.5578 65.3642 29.0101 70.0599 47.694 70.0599C58.3873 70.0599 69.9488 68.4963 82.0499 65.4178C101.298 60.5224 118.535 52.7823 130.577 43.6297C141.746 35.1395 147.701 25.9771 146.916 18.4952C146.622 15.6749 145.239 13.103 142.81 10.8526L142.281 10.3655Z" fill="#222222"/>
<path d="M3.35057 63.2064C2.75704 63.2064 2.34991 63.0846 2.10956 62.8362C1.94278 62.6657 1.8643 62.4465 1.87411 62.1786L1.93297 61.6623L2.15861 61.0388L13.5877 30.5949C13.7005 30.2101 13.8035 29.8886 13.8918 29.6305C13.9703 29.4064 14.0145 29.2116 14.0194 29.0606C14.0243 28.8901 14.039 28.4371 12.8274 28.3884L12.4987 28.3738L12.9157 27.1706L23.403 25.3635C23.8984 25.2807 24.3006 25.2417 24.644 25.2417C24.9923 25.2417 25.2817 25.2855 25.4975 25.3732C25.9341 25.5534 26.3461 26.0162 26.7581 26.7907L34.1699 40.4782L39.6048 26.1087C39.7127 25.7288 39.8157 25.4024 39.904 25.1443C39.9825 24.9202 40.0267 24.7254 40.0316 24.5744C40.0365 24.4185 40.0561 23.9509 38.8445 23.9022L38.5159 23.8875L38.923 22.6844L48.5617 21.0283C49.0375 20.9454 49.4544 20.9016 49.8027 20.9016C50.3962 20.9016 50.8034 21.0234 51.0437 21.2718C51.2105 21.4423 51.289 21.6615 51.2792 21.9245C51.2743 21.9732 51.2694 22.0804 51.083 22.6308L38.148 57.293L33.1447 58.1552C32.5659 58.2575 32.0557 58.3062 31.629 58.3062C31.1434 58.3062 30.7657 58.2429 30.4763 58.1162C29.9171 57.8727 29.3971 57.2687 28.887 56.2701L20.4157 40.2785L13.7103 57.9749C13.5975 58.3305 13.5092 58.6325 13.4553 58.881C13.4013 59.1294 13.367 59.3388 13.3572 59.4898C13.3522 59.6749 13.3326 60.1718 14.4706 60.2302L14.7993 60.2448L14.3823 61.3944L4.59158 63.0798C4.11087 63.1675 3.69393 63.2064 3.35057 63.2064Z" fill="white"/>
<path d="M49.808 21.1451C50.6468 21.1451 51.0588 21.4032 51.0392 21.9147C51.0343 21.9829 50.9754 22.1972 50.8577 22.5528L37.9767 57.0737L33.1107 57.9115C32.5368 58.0089 32.0463 58.0577 31.6342 58.0577C31.1928 58.0577 30.8396 58.0041 30.5796 57.8872C30.0793 57.668 29.5888 57.0883 29.113 56.1531L20.3817 39.6744L13.4801 57.8774C13.3624 58.2379 13.2741 58.5496 13.2153 58.8127C13.1564 59.0806 13.1221 59.2998 13.1123 59.4654C13.0926 60.0791 13.5341 60.4104 14.4563 60.4591L14.2012 61.1654L4.5478 62.8313C4.08181 62.9141 3.68449 62.953 3.35093 62.953C2.51215 62.953 2.10011 62.6949 2.11973 62.1785L2.17369 61.7109L2.38952 61.1118L13.8137 30.6679C13.9314 30.2734 14.0344 29.9519 14.1178 29.6986C14.2061 29.4453 14.2503 29.231 14.2601 29.0605C14.2797 28.4808 13.8088 28.1739 12.8376 28.135L13.0975 27.3751L23.4377 25.5923C23.9086 25.5144 24.3059 25.4705 24.6345 25.4705C24.9534 25.4705 25.2085 25.5095 25.3948 25.5826C25.7725 25.7384 26.1502 26.172 26.5329 26.8929L34.2046 41.0578L39.8308 26.1817C39.9436 25.7871 40.0466 25.4657 40.1349 25.2124C40.2232 24.9591 40.2674 24.7447 40.2772 24.5743C40.2968 23.9946 39.821 23.6877 38.8547 23.6488L39.1098 22.8889L48.6062 21.2522C49.0722 21.184 49.4744 21.1451 49.808 21.1451ZM49.808 20.658C49.445 20.658 49.0133 20.7018 48.5228 20.7895L39.0313 22.4261L38.7419 22.4748L38.6487 22.7476L38.3936 23.5075L38.1827 24.1261L38.8351 24.1505C39.8014 24.1895 39.7916 24.4768 39.7867 24.5694C39.7818 24.6571 39.7621 24.8129 39.6739 25.0662C39.5807 25.339 39.4776 25.6654 39.3697 26.0404L34.1261 39.8936L26.9694 26.6737C26.5279 25.8505 26.0767 25.3488 25.5911 25.1442C25.3409 25.0419 25.027 24.9932 24.6395 24.9932C24.2863 24.9932 23.8644 25.0321 23.3592 25.1198L13.0142 26.9026L12.7297 26.9513L12.6365 27.2241L12.3765 27.984L12.1607 28.6026L12.8179 28.6269C13.7843 28.6659 13.7745 28.9436 13.7696 29.0507C13.7646 29.1335 13.745 29.2943 13.6567 29.5476C13.5684 29.8057 13.4703 30.1272 13.3477 30.5218L1.93334 60.9559L1.71751 61.5599L1.69789 61.6135L1.69298 61.6671L1.63902 62.1347V62.1542V62.1737C1.62431 62.5049 1.73222 62.7923 1.94315 63.0066C2.23255 63.3037 2.69854 63.4499 3.36074 63.4499C3.71882 63.4499 4.15048 63.406 4.641 63.3232L14.2944 61.6573L14.574 61.6086L14.6721 61.3407L14.9272 60.6344L15.1528 60.0158L14.4906 59.9817C13.5979 59.9379 13.6077 59.6359 13.6126 59.4946C13.6175 59.4021 13.6371 59.2267 13.7009 58.9296C13.7548 58.6909 13.8382 58.4035 13.951 58.0479L20.4553 40.8727L28.6764 56.3918C29.2062 57.4342 29.7654 58.0771 30.3834 58.345C30.7072 58.4863 31.1143 58.5545 31.6342 58.5545C32.0757 58.5545 32.6006 58.5009 33.1941 58.3986L38.06 57.5608L38.3396 57.5121L38.4377 57.2491L51.3188 22.7281C51.515 22.129 51.5248 22.0121 51.5297 21.9537C51.5395 21.6078 51.4365 21.3204 51.2256 21.1012C50.9362 20.8041 50.4702 20.658 49.808 20.658Z" fill="#222222"/>
</g>
<defs>
<clipPath id="clip0_919:1322">
<rect width="149" height="71" fill="white"/>
</clipPath>
</defs>
</svg>
